<svg width="25" height="25" viewBox="0 0 25 25" fill="none" xmlns="http://www.w3.org/2000/svg">
<path d="M22.209 13.8986V21.2776H17.931V14.3926C17.931 12.6626 17.312 11.4826 15.764 11.4826C14.582 11.4826 13.878 12.2786 13.569 13.0476C13.456 13.3226 13.427 13.7056 13.427 14.0906V21.2776H9.147C9.147 21.2776 9.205 9.61757 9.147 8.40857H13.427V10.2326L13.399 10.2746H13.427V10.2326C13.995 9.35757 15.01 8.10657 17.283 8.10657C20.098 8.10657 22.209 9.94657 22.209 13.8986ZM4.671 2.20557C3.208 2.20557 2.25 3.16557 2.25 4.42857C2.25 5.66357 3.18 6.65257 4.615 6.65257H4.643C6.136 6.65257 7.063 5.66357 7.063 4.42857C7.037 3.16557 6.137 2.20557 4.672 2.20557H4.671ZM2.504 21.2776H6.782V8.40857H2.504V21.2776Z" fill="white"/>
</svg>
