<svg width="25" height="25" viewBox="0 0 25 25" fill="none" xmlns="http://www.w3.org/2000/svg">
<path d="M22.25 6.08661C21.5004 6.41399 20.7065 6.62864 19.894 6.72361C20.7468 6.22284 21.388 5.42871 21.698 4.48961C20.89 4.95994 20.0087 5.29121 19.091 5.46961C18.7045 5.06481 18.2397 4.74299 17.7248 4.52379C17.2098 4.30458 16.6556 4.19257 16.096 4.19461C13.83 4.19461 11.993 6.00461 11.993 8.23461C11.993 8.55061 12.029 8.85961 12.099 9.15461C10.4736 9.0773 8.88212 8.66201 7.42617 7.93525C5.97022 7.20848 4.68176 6.18619 3.643 4.93361C3.27883 5.54801 3.08742 6.24939 3.089 6.96361C3.0897 7.63157 3.25683 8.28884 3.57529 8.876C3.89375 9.46316 4.3535 9.96172 4.913 10.3266C4.26248 10.3056 3.62602 10.1319 3.055 9.81961V9.86961C3.055 11.8276 4.47 13.4606 6.345 13.8326C5.99261 13.9261 5.62958 13.9735 5.265 13.9736C5 13.9736 4.743 13.9486 4.492 13.8986C4.76008 14.7065 5.27311 15.4109 5.95982 15.9139C6.64653 16.417 7.47284 16.6937 8.324 16.7056C6.86407 17.8302 5.07182 18.4377 3.229 18.4326C2.897 18.4326 2.571 18.4126 2.25 18.3766C4.13125 19.5673 6.31259 20.1979 8.539 20.1946C16.086 20.1946 20.212 14.0376 20.212 8.69861L20.198 8.17561C21.0029 7.60928 21.6981 6.90145 22.25 6.08661Z" fill="white"/>
</svg>
