<svg width="21" height="15" viewBox="0 0 21 15" fill="none" xmlns="http://www.w3.org/2000/svg">
<path d="M16.062 0.196801H4.395C2.105 0.196801 0.25 2.0318 0.25 4.2958V10.0638C0.25 12.3278 2.106 14.1638 4.395 14.1638H16.062C18.352 14.1638 20.207 12.3278 20.207 10.0638V4.2958C20.207 2.0318 18.351 0.195801 16.062 0.195801V0.196801ZM13.259 7.4598L7.802 10.0348C7.76872 10.0508 7.73192 10.0582 7.69503 10.0562C7.65815 10.0541 7.62237 10.0428 7.59103 10.0233C7.5597 10.0037 7.53382 9.97653 7.5158 9.94428C7.49779 9.91203 7.48822 9.87574 7.488 9.8388V4.5298C7.48867 4.49267 7.49872 4.45632 7.51722 4.42413C7.53573 4.39193 7.56208 4.36494 7.59382 4.34568C7.62556 4.32641 7.66167 4.31549 7.69877 4.31394C7.73587 4.31239 7.77276 4.32025 7.806 4.3368L13.264 7.0718C13.3004 7.08993 13.3309 7.11795 13.352 7.15263C13.3732 7.18731 13.3841 7.22725 13.3836 7.26787C13.3831 7.30849 13.3711 7.34814 13.3491 7.38226C13.327 7.41639 13.2958 7.44361 13.259 7.4608V7.4598Z" fill="white"/>
</svg>
