<svg width="25" height="25" viewBox="0 0 25 25" fill="none" xmlns="http://www.w3.org/2000/svg">
<path d="M16.267 2.17969H8.197C6.62015 2.18154 5.10844 2.80883 3.99353 3.92392C2.87862 5.03902 2.25159 6.55084 2.25 8.12769L2.25 16.1977C2.25185 17.7745 2.87914 19.2863 3.99424 20.4012C5.10933 21.5161 6.62115 22.1431 8.198 22.1447H16.268C17.8448 22.1428 19.3566 21.5155 20.4715 20.4005C21.5864 19.2854 22.2134 17.7735 22.215 16.1967V8.12669C22.2131 6.54984 21.5859 5.03812 20.4708 3.92322C19.3557 2.80831 17.8438 2.18128 16.267 2.17969V2.17969ZM20.207 16.1967C20.207 16.7141 20.1051 17.2264 19.9071 17.7045C19.7091 18.1825 19.4189 18.6168 19.053 18.9827C18.6871 19.3486 18.2528 19.6388 17.7748 19.8368C17.2968 20.0348 16.7844 20.1367 16.267 20.1367H8.197C7.15222 20.1364 6.15032 19.7212 5.41165 18.9823C4.67297 18.2435 4.258 17.2415 4.258 16.1967V8.12669C4.25827 7.08191 4.67349 6.08001 5.41235 5.34133C6.15122 4.60266 7.15322 4.18769 8.198 4.18769H16.268C17.3128 4.18795 18.3147 4.60318 19.0534 5.34204C19.792 6.0809 20.207 7.08291 20.207 8.12769V16.1977V16.1967Z" fill="white"/>
<path d="M12.2323 6.99878C10.8637 7.0009 9.55184 7.54556 8.58421 8.51339C7.61658 9.48121 7.07216 10.7932 7.07031 12.1618C7.0719 13.5307 7.61634 14.8431 8.58421 15.8112C9.55209 16.7792 10.8644 17.3239 12.2333 17.3258C13.6024 17.3242 14.915 16.7796 15.8831 15.8115C16.8512 14.8434 17.3957 13.5309 17.3973 12.1618C17.3952 10.7929 16.8503 9.48066 15.882 8.51297C14.9137 7.54528 13.6012 7.0011 12.2323 6.99978V6.99878ZM12.2323 15.3178C11.3956 15.3178 10.5931 14.9854 10.0014 14.3937C9.40971 13.802 9.07731 12.9995 9.07731 12.1628C9.07731 11.326 9.40971 10.5235 10.0014 9.93186C10.5931 9.34018 11.3956 9.00778 12.2323 9.00778C13.0691 9.00778 13.8716 9.34018 14.4632 9.93186C15.0549 10.5235 15.3873 11.326 15.3873 12.1628C15.3873 12.9995 15.0549 13.802 14.4632 14.3937C13.8716 14.9854 13.0691 15.3178 12.2323 15.3178Z" fill="white"/>
<path d="M17.4059 8.27478C18.0891 8.27478 18.6429 7.72096 18.6429 7.03778C18.6429 6.3546 18.0891 5.80078 17.4059 5.80078C16.7228 5.80078 16.1689 6.3546 16.1689 7.03778C16.1689 7.72096 16.7228 8.27478 17.4059 8.27478Z" fill="white"/>
</svg>
